<svg width="12" height="15" viewBox="0 0 12 15" fill="none" xmlns="http://www.w3.org/2000/svg">
<path d="M10.2427 2.59038C11.3443 3.6918 11.9743 5.17846 11.9995 6.73599C12.0248 8.29352 11.4433 9.79982 10.378 10.9364L10.2427 11.0764L7.41404 13.9044C7.05512 14.2631 6.57329 14.4719 6.06614 14.4886C5.55899 14.5053 5.06445 14.3287 4.6827 13.9944L4.5867 13.9044L1.75737 11.0757C0.632145 9.95049 0 8.42435 0 6.83305C0 5.24174 0.632145 3.7156 1.75737 2.59038C2.8826 1.46515 4.40873 0.833008 6.00004 0.833008C7.59135 0.833008 9.11748 1.46515 10.2427 2.59038ZM6.00004 4.83305C5.73739 4.83305 5.47732 4.88478 5.23467 4.98529C4.99202 5.08579 4.77154 5.23311 4.58582 5.41883C4.40011 5.60455 4.25279 5.82503 4.15228 6.06768C4.05177 6.31033 4.00004 6.5704 4.00004 6.83305C4.00004 7.09569 4.05177 7.35576 4.15228 7.59841C4.25279 7.84106 4.40011 8.06154 4.58582 8.24726C4.77154 8.43298 4.99202 8.58029 5.23467 8.6808C5.47732 8.78131 5.73739 8.83305 6.00004 8.83305C6.53047 8.83305 7.03918 8.62233 7.41425 8.24726C7.78932 7.87219 8.00004 7.36348 8.00004 6.83305C8.00004 6.30261 7.78932 5.7939 7.41425 5.41883C7.03918 5.04376 6.53047 4.83305 6.00004 4.83305Z" fill="#2B2928" style="fill:#2B2928;fill:color(display-p3 0.1686 0.1608 0.1569);fill-opacity:1;"/>
</svg>
